<?xml version="1.0" standalone="no"?>
<!DOCTYPE svg PUBLIC "-//W3C//DTD SVG 20010904//EN"
 "http://www.w3.org/TR/2001/REC-SVG-20010904/DTD/svg10.dtd">
<svg version="1.0" xmlns="http://www.w3.org/2000/svg"
 width="180.000000pt" height="180.000000pt" viewBox="0 0 180.000000 180.000000"
 preserveAspectRatio="xMidYMid meet">
<metadata>
Created by potrace 1.10, written by Peter Selinger 2001-2011
</metadata>
<g transform="translate(0.000000,180.000000) scale(0.100000,-0.100000)"
fill="#000000" stroke="none">
<path d="M735 1788 c-359 -28 -597 -213 -690 -535 -26 -88 -48 -273 -33 -273
4 0 8 -38 8 -85 0 -47 -4 -85 -8 -85 -15 0 7 -186 33 -275 63 -217 184 -364
373 -452 101 -47 254 -84 305 -73 9 2 355 2 365 0 50 -11 203 26 304 73 183
85 304 227 367 432 22 71 42 195 32 195 -3 0 -6 83 -6 185 0 102 3 185 6 185
10 0 -10 124 -31 195 -26 85 -86 200 -137 261 -81 98 -223 182 -377 224 -80
22 -266 41 -266 28 0 -10 -147 -10 -152 0 -1 4 -43 4 -93 0z m436 -72 c165
-37 284 -101 380 -204 145 -153 201 -340 195 -647 -6 -306 -78 -496 -244 -639
l-22 -19 0 60 0 61 45 -6 45 -5 0 47 0 46 -45 0 -45 0 0 40 0 40 45 0 45 0 0
46 0 46 -70 -4 -70 -3 0 86 0 86 -41 -1 -41 -1 1 118 c1 64 0 121 -3 125 -2 4
-23 6 -45 4 l-41 -4 0 -124 0 -124 40 0 40 0 0 -86 0 -86 30 7 30 7 0 -129 0
-129 -85 4 -85 5 0 -47 0 -46 85 0 85 0 0 -44 0 -45 -81 -31 c-138 -53 -214
-65 -414 -65 -110 0 -203 5 -240 13 -73 16 -187 52 -198 62 -5 4 -10 31 -11
59 l-1 51 82 0 83 0 0 46 0 46 -81 -3 -81 -3 0 124 1 125 26 -2 c25 -2 25 -1
25 83 l0 84 -35 0 c-19 0 -38 0 -41 0 -4 0 -7 -37 -8 -81 l-1 -82 -69 -1 -68
-1 -2 -43 -2 -42 43 0 43 0 0 -40 0 -40 -43 0 -43 0 2 -43 2 -42 40 1 41 1 3
-74 c2 -40 -1 -73 -6 -73 -5 0 -45 37 -90 83 -154 155 -214 334 -214 632 0
284 60 472 197 617 102 109 244 181 411 208 41 6 82 13 90 15 37 9 351 -5 411
-19z m-751 -1350 c0 -19 9 -45 21 -60 17 -21 19 -29 9 -41 -22 -27 -40 -18
-40 20 0 25 -7 43 -25 59 l-24 22 21 22 c27 26 38 20 38 -22z m1045 -28 c-16
-19 -25 -42 -25 -65 0 -35 0 -36 -20 -18 -11 10 -20 23 -20 30 0 7 9 20 20 30
14 12 20 31 20 58 l0 40 25 -23 24 -23 -24 -29z m4 -165 c-19 -22 -29 -15 -29
19 0 30 0 31 20 13 15 -14 17 -21 9 -32z m-1049 -12 c0 -24 -12 -32 -30 -21
-11 7 -11 11 -1 24 18 22 31 20 31 -3z"/>
<path d="M590 1034 l0 -47 -40 6 -40 5 0 -129 0 -129 43 0 42 0 -4 125 -3 125
47 0 48 0 -6 -40 -5 -40 44 0 44 0 0 -45 0 -45 170 0 170 0 0 45 0 45 40 0
c40 0 40 0 40 40 0 40 0 40 40 40 l40 0 0 45 0 45 -40 0 -40 0 0 -46 0 -46
-42 3 -43 3 0 -39 0 -40 -167 -3 -168 -2 0 44 0 44 -40 -5 -40 -6 0 47 0 46
-45 0 -45 0 0 -46z"/>
<path d="M700 575 l0 -85 45 0 45 0 0 85 0 85 -45 0 -45 0 0 -85z"/>
<path d="M1065 575 l0 -85 43 0 42 0 0 85 0 85 -42 0 -43 0 0 -85z"/>
</g>
</svg>
